<svg id="Capa_1" enable-background="new 0 0 512 512" height="512" viewBox="0 0 512 512" width="512" xmlns="http://www.w3.org/2000/svg"><g><path d="m497 91h-136v-15c0-24.814-20.186-45-45-45h-120c-24.814 0-45 20.186-45 45v15h-136c-8.284 0-15 6.714-15 15v90c0 24.853 20.147 45 45 45h422c24.853 0 45-20.147 45-45v-90c0-8.286-6.716-15-15-15zm-166 0h-150v-15c0-8.276 6.738-15 15-15h120c8.262 0 15 6.724 15 15z" fill="#fff"/><path d="m271 271h-30c0 8.276 6.738 15 15 15s15-6.724 15-15z" fill="#fff"/><path d="m211 271h-166c-5.138 0-10.151-.529-15-1.518v166.518c0 24.814 20.186 45 45 45h362c24.814 0 45-20.186 45-45v-166.518c-4.849.989-9.862 1.518-15 1.518h-166c0 24.814-20.186 45-45 45s-45-20.186-45-45zm60 136.789 53.789-53.789h-23.789c-8.291 0-15-6.709-15-15s6.709-15 15-15h60c8.291 0 15 6.709 15 15v60c0 8.291-6.709 15-15 15s-15-6.709-15-15v-23.789l-64.395 64.395c-5.859 5.859-15.351 5.86-21.211 0l-49.394-49.395-49.395 49.395c-5.859 5.859-15.352 5.859-21.211 0s-5.859-15.352 0-21.211l60-60c5.859-5.859 15.352-5.859 21.211 0z" fill="#fff"/></g></svg>