<svg id="Capa_1" enable-background="new 0 0 512 512" height="512" viewBox="0 0 512 512" width="512" xmlns="http://www.w3.org/2000/svg"><g><g><path d="m379.5 178.368h-247v-28c0-5.523 4.477-10 10-10h227c5.523 0 10 4.477 10 10z" fill="#ffe07d"/><path d="m369.5 140.368h-30c5.523 0 10 4.477 10 10v28h30v-28c0-5.523-4.477-10-10-10z" fill="#ffd064"/><path d="m424.5 351.235h-337v-74.12l75.052-28.682c2.28-.871 4.699-1.318 7.14-1.318h86.308 86.309c2.44 0 4.86.447 7.14 1.318l75.052 28.682v74.12z" fill="#ff8086"/><path d="m317.419 351.235c-1.704-17.116-1.765-36.387 1.242-57.226 2.479-17.175 6.673-32.819 11.797-46.894h-74.458-74.459c5.124 14.075 9.318 29.718 11.797 46.894 3.008 20.839 2.947 40.11 1.242 57.226z" fill="#db4955"/><g><path d="m87.5 327.244v23.991h179.667z" fill="#ffd064"/></g><path d="m424.5 351.235h-337v-44.12l75.052-28.682c2.28-.871 4.699-1.318 7.14-1.318h86.308 86.309c2.44 0 4.86.447 7.14 1.318l75.052 28.682v44.12z" fill="#ff8086"/><path d="m317.419 351.235c-1.704-17.116-1.765-36.387 1.242-57.226.838-5.81 1.882-11.435 3.082-16.894h-65.743-65.743c1.199 5.459 2.243 11.084 3.082 16.894 3.008 20.839 2.947 40.11 1.242 57.226z" fill="#e5646e"/><path d="m82.5 419.878h-55c-11.046 0-20-8.954-20-20v-146c0-11.046 8.954-20 20-20h55c11.046 0 20 8.954 20 20v146c0 11.046-8.954 20-20 20z" fill="#655e67"/><path d="m82.5 233.878h-30c11.046 0 20 8.955 20 20v146c0 11.046-8.954 20-20 20h30c11.046 0 20-8.954 20-20v-146c0-11.045-8.954-20-20-20z" fill="#544f56"/><path d="m484.5 419.878h-55c-11.046 0-20-8.954-20-20v-146c0-11.046 8.954-20 20-20h55c11.046 0 20 8.954 20 20v146c0 11.046-8.954 20-20 20z" fill="#655e67"/><path d="m484.5 233.878h-30c11.046 0 20 8.955 20 20v146c0 11.046-8.954 20-20 20h30c11.046 0 20-8.954 20-20v-146c0-11.045-8.954-20-20-20z" fill="#544f56"/><path d="m447.197 375.625-97.274 26.888c-2.603.72-5.292 1.084-7.993 1.084h-171.86c-2.701 0-5.389-.365-7.993-1.084l-97.274-26.888c-4.334-1.198-7.336-5.142-7.336-9.639v-43.035c0-6.478 6.065-11.246 12.36-9.718l107.684 26.151c2.318.563 4.695.847 7.08.847h142.819c2.385 0 4.762-.284 7.08-.847l107.684-26.151c6.295-1.529 12.36 3.24 12.36 9.718v43.035c-.001 4.497-3.003 8.441-7.337 9.639z" fill="#ff8086"/><path d="m442.173 313.234-7.484 1.817-11.561 2.807c.881 1.481 1.404 3.211 1.404 5.093v58.938l22.664-6.265c.087-.024.17-.056.256-.083 1.778-.543 3.324-1.547 4.51-2.866.067-.075.129-.155.194-.231.336-.397.641-.818.911-1.263.931-1.528 1.464-3.312 1.464-5.196v-43.035c.002-6.477-6.063-11.245-12.358-9.716z" fill="#db4955"/><g><path d="m281.491 148.586h-50.983v-30.973c0-14.078 11.413-25.491 25.491-25.491 14.078 0 25.491 11.413 25.491 25.491v30.973z" fill="#ff8086"/><path d="m256 92.122c-5.608 0-10.791 1.815-15 4.885 6.357 4.636 10.491 12.136 10.491 20.606v30.973h30v-30.973c0-14.078-11.412-25.491-25.491-25.491z" fill="#e5646e"/><path d="m302.33 208.368h-92.66v-27.572c0-25.587 20.743-46.33 46.33-46.33 25.587 0 46.33 20.743 46.33 46.33z" fill="#717ed3"/><path d="m256 134.465c-5.252 0-10.294.887-15 2.497 18.223 6.235 31.33 23.498 31.33 43.833v27.572h30v-27.572c0-25.587-20.743-46.33-46.33-46.33z" fill="#5766cb"/><path d="m302.33 180.795c0-3.207-.326-6.337-.947-9.36l-.018-.024c-11.734 2.425-26.209 4.438-42.814 4.627-18.85.214-35.114-1.981-47.917-4.627l-.033.101c-.61 3-.932 6.104-.932 9.283v42.572h92.66v-42.572z" fill="#dceafc"/><path d="m317.511 352.184c-.401-3.872-.713-7.863-.93-11.952h-121.162c-.217 4.089-.529 8.08-.93 11.952-2.088 20.157 5.893 38.811 19.648 51.413h83.726c13.755-12.602 21.736-31.256 19.648-51.413z" fill="#db4955"/><path d="m302.27 178.407c-.006-.119-.02-.236-.027-.355-.039-.671-.085-1.34-.153-2.003-.008-.081-.022-.161-.031-.241-.075-.699-.16-1.396-.266-2.085-.003-.018-.007-.036-.01-.054-.116-.75-.249-1.494-.4-2.231 0 0 0-.001 0-.002l-.018-.024c-8.438 1.744-18.299 3.271-29.343 4.063.2 1.747.308 3.521.308 5.321v27.572h30v-27.572c0-.802-.02-1.598-.06-2.389z" fill="#bdd8fc"/><path d="m296.963 293.306c-2.003 13.874-1.927 26.689-.752 38.031 2.456 23.708-16.376 44.253-40.211 44.253-23.835 0-42.667-20.545-40.211-44.253 1.175-11.342 1.25-24.156-.752-38.031-4.938-34.211-20.247-59.195-31.646-73.846-3.514-4.516-.33-11.092 5.392-11.092h134.434c5.722 0 8.906 6.575 5.392 11.092-11.399 14.65-26.708 39.634-31.646 73.846z" fill="#ff8086"/></g></g><path d="m484.5 226.38h-55c-15.163 0-27.5 12.336-27.5 27.5v6.613l-15-5.735v-104.388c0-9.649-7.851-17.5-17.5-17.5h-80.51v-15.26c.084-18.029-15.096-32.99-32.99-32.99-18.19 0-32.99 14.799-32.99 32.99v15.26h-80.51c-9.649 0-17.5 7.851-17.5 17.5v104.388l-15 5.735v-6.613c0-15.164-12.337-27.5-27.5-27.5h-55c-15.163 0-27.5 12.336-27.5 27.5v146c0 15.164 12.337 27.5 27.5 27.5h55c15.163 0 27.5-12.336 27.5-27.5v-3.985l50.078 13.842c3.263.904 6.625 1.363 9.992 1.363h171.86c3.367 0 6.729-.458 9.988-1.361l50.082-13.843v3.984c0 15.164 12.337 27.5 27.5 27.5h55c15.163 0 27.5-12.336 27.5-27.5v-146c0-15.164-12.337-27.5-27.5-27.5zm-82.5 50.172v13.941l-49.876-19.07c-3.135-1.196-6.438-1.803-9.814-1.803h-32.105c1.752-5.325 3.735-10.329 5.856-15h26.249c1.543 0 3.046.275 4.462.815zm-113.249 55.557c.956 9.229-1.961 18.131-8.215 25.065-6.255 6.936-15.198 10.915-24.536 10.915s-18.281-3.979-24.536-10.915c-6.254-6.935-9.171-15.836-8.215-25.065 1.377-13.291 1.111-26.706-.789-39.875-4.204-29.13-16.627-55.808-32.367-76.367h131.814c-16.394 21.431-27.932 45.637-32.367 76.367-1.9 13.169-2.166 26.584-.789 39.875zm15.635-37.732c.483-3.344 1.076-6.593 1.756-9.757h36.168c1.543 0 3.046.275 4.462.815l55.228 21.117v8.715l-69.3 16.829c-1.71.42-3.489.633-5.29.633h-23.573c-.876-13.032-1.32-25.407.549-38.352zm65.114-146.507c1.379 0 2.5 1.122 2.5 2.5v20.5h-34.73c-4.143 0-7.5 3.358-7.5 7.5s3.357 7.5 7.5 7.5h34.73v63.152l-19.876-7.6c-3.135-1.196-6.438-1.803-9.814-1.803h-18.397c3.589-6.02 7.244-11.221 10.617-15.556 3.404-4.376 4.008-10.184 1.576-15.157-2.426-4.959-7.364-8.04-12.889-8.04h-13.387v-20.072c0-12.401-4.236-23.817-11.312-32.925h70.982zm-131.49-30.26c0-9.919 8.07-17.99 17.99-17.99 9.753 0 18.044 8.194 17.99 17.99v12.458c-5.629-2.002-11.683-3.103-17.99-3.103s-12.361 1.1-17.99 3.103zm17.99 24.355c16.009 0 29.784 9.74 35.717 23.604-10.99 1.836-22.138 2.843-33.25 2.969-12.759.146-25.567-.866-38.182-2.973 5.934-13.861 19.707-23.6 35.715-23.6zm-38.83 38.83c0-.181.011-.359.014-.54 13.689 2.325 27.585 3.439 41.453 3.282 12.094-.137 24.227-1.25 36.18-3.281.002.18.014.358.014.539v20.072h-77.66v-20.072zm-77.17-30.425c0-1.378 1.121-2.5 2.5-2.5h70.982c-5.14 6.617-8.779 14.45-10.382 23h-63.1zm0 35.5h62.17v14.998h-13.387c-5.524 0-10.463 3.081-12.889 8.04-2.432 4.973-1.828 10.781 1.577 15.158 3.373 4.334 7.028 9.536 10.616 15.555h-18.397c-3.377 0-6.68.606-9.819 1.805l-19.871 7.596zm-30 90.682 55.224-21.115c1.421-.542 2.924-.817 4.467-.817h26.249c2.122 4.671 4.104 9.675 5.857 15h-32.107c-3.377 0-6.68.606-9.819 1.805l-49.871 19.068zm-15 123.328c0 6.893-5.607 12.5-12.5 12.5h-55c-6.893 0-12.5-5.607-12.5-12.5v-146c0-6.893 5.607-12.5 12.5-12.5h55c6.893 0 12.5 5.607 12.5 12.5v57.745l-23.4-5.683c-10.864-2.718-21.697 5.871-21.63 17.008v43.04c0 7.85 5.281 14.784 12.832 16.859l32.198 8.9zm252.917-4.598c-1.959.542-3.974.818-5.987.818h-171.86c-2.014 0-4.028-.275-5.992-.819l-97.291-26.893c-1.07-.294-1.817-1.28-1.817-2.398v-43.04c.08-1.809 1.308-2.791 3.091-2.432l53.297 12.943c4.024.979 8.079-1.493 9.058-5.518.978-4.025-1.493-8.081-5.519-9.058l-14.897-3.618v-8.715l55.224-21.115c1.421-.542 2.924-.817 4.467-.817h36.168c.679 3.164 1.273 6.414 1.756 9.757 1.846 12.79 1.418 25.438.549 38.353h-23.574c-1.801 0-3.58-.213-5.311-.638l-20.359-4.944c-4.025-.979-8.081 1.493-9.058 5.518-.978 4.025 1.493 8.081 5.519 9.058l20.339 4.939c2.88.708 5.864 1.067 8.87 1.067h25.126c1.931 7.161 5.533 13.862 10.608 19.489 9.095 10.085 22.098 15.87 35.676 15.87s26.581-5.784 35.676-15.87c5.075-5.627 8.677-12.329 10.608-19.489h25.126c3.006 0 5.99-.359 8.85-1.062l107.68-26.15c1.827-.349 3.007.617 3.091 2.432v43.04c0 1.118-.747 2.104-1.828 2.401zm149.083 4.598c0 6.893-5.607 12.5-12.5 12.5h-55c-6.893 0-12.5-5.607-12.5-12.5v-8.131l32.188-8.897c7.562-2.078 12.843-9.012 12.843-16.862v-43.04c.072-11.172-10.861-19.702-21.63-17.008l-23.4 5.683v-57.745c0-6.893 5.607-12.5 12.5-12.5h55c6.893 0 12.5 5.607 12.5 12.5v146zm-240.064-152.307h-15.776c-4.143 0-7.5 3.358-7.5 7.5s3.357 7.5 7.5 7.5h8.276v66.31c0 4.142 3.357 7.5 7.5 7.5s7.5-3.358 7.5-7.5v-73.81c0-4.142-3.358-7.5-7.5-7.5z"/></g></svg>