<svg id="Capa_1" enable-background="new 0 0 510 510" height="512" viewBox="0 0 510 510" width="512" xmlns="http://www.w3.org/2000/svg" xmlns:xlink="http://www.w3.org/1999/xlink"><linearGradient id="lg1"><stop offset="0" stop-color="#537983"/><stop offset=".593" stop-color="#554e56"/><stop offset="1" stop-color="#433f43"/></linearGradient><linearGradient id="SVGID_1_" gradientUnits="userSpaceOnUse" x1="172" x2="496.888" xlink:href="#lg1" y1="424.24" y2="424.24"/><linearGradient id="SVGID_2_" gradientUnits="userSpaceOnUse" x1="296.375" x2="341.892" xlink:href="#lg1" y1="444.26" y2="444.26"/><linearGradient id="SVGID_3_" gradientUnits="userSpaceOnUse" x1="300" x2="363.677" xlink:href="#lg1" y1="473.401" y2="473.401"/><linearGradient id="lg2"><stop offset="0" stop-color="#fe646f"/><stop offset=".593" stop-color="#fb2b3a"/><stop offset="1" stop-color="#c41926"/></linearGradient><linearGradient id="SVGID_4_" gradientTransform="matrix(.707 .707 -.707 .707 90.559 266.985)" gradientUnits="userSpaceOnUse" x1="-86.639" x2="274.495" xlink:href="#lg2" y1="2.978" y2="2.978"/><linearGradient id="SVGID_5_" gradientTransform="matrix(.707 .707 -.707 .707 91.529 267.387)" gradientUnits="userSpaceOnUse" x1="5.173" x2="84.377" xlink:href="#lg2" y1="-99.397" y2="-99.397"/><linearGradient id="SVGID_6_" gradientTransform="matrix(.707 .707 -.707 .707 91.529 267.387)" gradientUnits="userSpaceOnUse" x1="-17.643" x2="187.743" xlink:href="#lg2" y1="12.744" y2="12.744"/><linearGradient id="SVGID_7_" gradientTransform="matrix(.707 .707 -.707 .707 -98.227 629.51)" gradientUnits="userSpaceOnUse" x1="-78.495" x2="44.883" xlink:href="#lg1" y1="-590.886" y2="-590.886"/><linearGradient id="SVGID_8_" gradientTransform="matrix(.707 .707 -.707 .707 -66.231 642.764)" gradientUnits="userSpaceOnUse" x1="-140.482" x2="-17.104" xlink:href="#lg1" y1="-577.629" y2="-577.629"/><linearGradient id="SVGID_9_" gradientTransform="matrix(.707 .707 -.707 .707 -65.838 643.71)" gradientUnits="userSpaceOnUse" x1="-99.152" x2="5.125" xlink:href="#lg1" y1="-757.35" y2="-757.35"/><linearGradient id="SVGID_10_" gradientTransform="matrix(.707 .707 -.707 .707 -65.838 643.71)" gradientUnits="userSpaceOnUse" x1="-89.844" x2="-4.182" xlink:href="#lg1" y1="-796.499" y2="-796.499"/><linearGradient id="SVGID_11_" gradientTransform="matrix(.707 .707 -.707 .707 -65.838 643.71)" gradientUnits="userSpaceOnUse" x1="-109.457" x2="15.431" xlink:href="#lg1" y1="-718.201" y2="-718.201"/><linearGradient id="SVGID_12_" gradientTransform="matrix(.707 .707 -.707 .707 -98.227 629.51)" gradientUnits="userSpaceOnUse" x1="-97.372" x2="62.715" xlink:href="#lg2" y1="-771.992" y2="-771.992"/><linearGradient id="SVGID_13_" gradientTransform="matrix(.707 .707 -.707 .707 91.529 267.387)" gradientUnits="userSpaceOnUse" x1="15.457" x2="142.626" xlink:href="#lg2" y1="-381.754" y2="-381.754"/><linearGradient id="lg3"><stop offset="0" stop-color="#f8f6f7"/><stop offset=".1788" stop-color="#f8f6f7"/><stop offset="1" stop-color="#e7e6f5"/></linearGradient><linearGradient id="SVGID_14_" gradientTransform="matrix(.707 .707 -.707 .707 -65.838 643.71)" gradientUnits="userSpaceOnUse" x1="-108.784" x2="-81.166" xlink:href="#lg3" y1="-796.499" y2="-796.499"/><linearGradient id="SVGID_15_" gradientTransform="matrix(.707 .707 -.707 .707 -65.838 643.71)" gradientUnits="userSpaceOnUse" x1="-118.092" x2="-90.473" xlink:href="#lg3" y1="-757.35" y2="-757.35"/><linearGradient id="SVGID_16_" gradientTransform="matrix(.707 .707 -.707 .707 -65.838 643.71)" gradientUnits="userSpaceOnUse" x1="-124.297" x2="-96.678" xlink:href="#lg3" y1="-718.201" y2="-718.201"/><linearGradient id="SVGID_17_" gradientTransform="matrix(.707 .707 -.707 .707 -65.838 643.71)" gradientUnits="userSpaceOnUse" x1="-17.671" x2="9.003" xlink:href="#lg3" y1="-796.499" y2="-796.499"/><linearGradient id="SVGID_18_" gradientTransform="matrix(.707 .707 -.707 .707 -65.838 643.71)" gradientUnits="userSpaceOnUse" x1="-8.364" x2="18.31" xlink:href="#lg3" y1="-757.35" y2="-757.35"/><linearGradient id="SVGID_19_" gradientTransform="matrix(.707 .707 -.707 .707 -65.838 643.71)" gradientUnits="userSpaceOnUse" x1="-2.159" x2="24.515" xlink:href="#lg3" y1="-718.201" y2="-718.201"/><linearGradient id="SVGID_20_" gradientTransform="matrix(.707 .707 -.707 .707 -200.654 673.684)" gradientUnits="userSpaceOnUse" x1="-34.405" x2="95.522" xlink:href="#lg3" y1="-527.921" y2="-527.921"/><linearGradient id="SVGID_21_" gradientTransform="matrix(.707 .707 -.707 .707 -200.654 673.684)" gradientUnits="userSpaceOnUse" x1="-34.405" x2="95.522" xlink:href="#lg3" y1="-487.589" y2="-487.589"/><linearGradient id="SVGID_22_" gradientTransform="matrix(.707 .707 -.707 .707 91.529 267.387)" gradientUnits="userSpaceOnUse" x1="158.833" x2="196.994" xlink:href="#lg3" y1="98.641" y2="98.641"/><linearGradient id="SVGID_23_" gradientTransform="matrix(.707 .707 -.707 .707 91.529 267.387)" gradientUnits="userSpaceOnUse" x1="194.333" x2="228.425" xlink:href="#lg3" y1="57.141" y2="57.141"/><linearGradient id="SVGID_24_" gradientTransform="matrix(.707 .707 -.707 .707 91.529 267.387)" gradientUnits="userSpaceOnUse" x1="-171.585" x2="376.238" xlink:href="#lg1" y1="100.77" y2="100.77"/><linearGradient id="SVGID_25_" gradientTransform="matrix(.707 .707 -.707 .707 91.529 267.387)" gradientUnits="userSpaceOnUse" x1="-145.281" x2="202.86" xlink:href="#lg1" y1="100.77" y2="100.77"/><linearGradient id="lg4"><stop offset="0" stop-color="#fef056"/><stop offset=".5213" stop-color="#fbc56d"/><stop offset="1" stop-color="#c86d36"/></linearGradient><linearGradient id="SVGID_26_" gradientUnits="userSpaceOnUse" x1="438.52" x2="463.346" xlink:href="#lg4" y1="318.873" y2="318.873"/><linearGradient id="SVGID_27_" gradientUnits="userSpaceOnUse" x1="425.427" x2="481.003" xlink:href="#lg4" y1="349.145" y2="349.145"/><linearGradient id="SVGID_28_" gradientUnits="userSpaceOnUse" x1="395" x2="490.835" xlink:href="#lg4" y1="349.145" y2="349.145"/><g><path d="m191.146 499.334-.038-15 79.457-.201c24.604-.086 47.877-8.833 66.306-24.779l-10.947-10.943c-5.81-5.808-9.01-13.531-9.011-21.747 0-8.215 3.199-15.939 9.008-21.748s13.532-9.008 21.746-9.008h.002c8.215.001 15.938 3.201 21.747 9.011 11.987 11.99 11.986 31.499-.003 43.488l-11.137 11.137 11.688 11.688c7.917 7.916 18.864 12.449 30.058 12.449h.146c23.353-.083 42.352-19.149 42.352-42.502v-92.035h15v92.035c0 31.595-25.704 57.39-57.298 57.502-.065 0-.132 0-.197 0-15.145 0-29.956-6.131-40.666-16.842l-11.854-11.854c-21.268 18.751-48.293 29.048-76.893 29.148zm156.521-88.425c-4.208 0-8.164 1.639-11.139 4.614-2.976 2.976-4.614 6.932-4.614 11.141 0 4.208 1.64 8.164 4.616 11.139l11.139 11.136 11.138-11.137c6.141-6.142 6.142-16.134.001-22.276-2.975-2.977-6.931-4.616-11.139-4.616-.001-.001-.001-.001-.002-.001z" fill="url(#SVGID_1_)"/><path d="m336.53 437.803c-2.376-2.376-3.883-5.381-4.401-8.637l-11.848 11.502c1.447 2.822 3.336 5.435 5.644 7.743l10.947 10.943 10.797-10.416z" fill="url(#SVGID_2_)"/><path d="m369.965 471.233-11.688-11.688-10.76 10.454 11.842 11.842c1.964 1.964 4.069 3.771 6.286 5.418l10.948-10.636c-2.377-1.565-4.603-3.365-6.628-5.39z" fill="url(#SVGID_3_)"/><g><path d="m264.875 397.631c1.08-12.618 9.897-23.054 22.106-26.418 11.77-3.243 22.416-9.161 31.119-17.864 10.449-10.449 16.882-23.697 19.492-38.33 1.543-8.65-6.043-16.036-14.723-14.676-12.489 1.957-25.709-1.874-35.332-11.498-14.608-14.608-15.876-37.504-3.805-53.551 1.765-2.346 1.932-5.632.144-7.959-2.182-2.84-6.188-3.342-8.952-1.234-16.057 12.249-39.096 11.036-53.771-3.639-9.624-9.624-13.455-22.843-11.498-35.332 1.36-8.681-6.026-16.266-14.676-14.723-14.633 2.61-27.881 9.043-38.33 19.492-8.703 8.703-14.621 19.349-17.864 31.119-3.364 12.209-13.8 21.026-26.418 22.106-27.552 2.358-60.391 7.041-80.761 27.412-48.868 48.868-38.766 138.201 14.444 191.412s142.544 63.313 191.412 14.444c20.372-20.37 25.055-53.209 27.413-80.761z" fill="url(#SVGID_4_)"/><path d="m224.085 295.687 35.143-35.143c-7.29-7.29-11.25-16.652-11.894-26.177 0-.001 0-.003 0-.004-9.537-.646-18.891-4.61-26.18-11.9-2.44-2.44-4.504-5.112-6.199-7.943l-36.019 36.019c-3.295 3.295-3.295 8.655.007 11.957l33.192 33.192c3.302 3.301 8.655 3.294 11.95-.001z" fill="url(#SVGID_5_)"/><path d="m237.464 478.389c-48.868 48.868-138.204 38.771-191.414-14.439-4.752-4.752-9.164-9.8-13.223-15.076 53.782 41.323 131.84 45.715 176.338 1.216 20.372-20.372 25.053-53.21 27.415-80.759 1.075-12.615 9.899-23.052 22.104-26.417 11.773-3.246 22.415-9.164 31.12-17.869 7.318-7.318 12.664-16.002 16.101-25.59 5.537 1.478 11.328 1.768 16.963.884 8.683-1.358 16.271 6.032 14.722 14.68-2.609 14.63-9.044 27.881-19.488 38.325-8.705 8.705-19.346 14.623-31.12 17.869-12.205 3.366-21.029 13.803-22.104 26.417-2.361 27.549-7.043 60.387-27.414 80.759z" fill="url(#SVGID_6_)"/><g><path d="m229.821 313.372-33.192-33.193c-3.301-3.301-3.301-8.653 0-11.955l179.497-179.497c3.301-3.301 8.653-3.301 11.955 0l33.192 33.193c3.301 3.301 3.301 8.653 0 11.955l-179.498 179.497c-3.301 3.301-8.653 3.301-11.954 0z" fill="url(#SVGID_7_)"/><path d="m421.274 133.873-179.497 179.497c-3.305 3.305-8.658 3.305-11.956.007l-18.296-18.296c3.305 3.305 8.658 3.305 11.963 0l157.275-157.275-20.629-20.629c-2.216-2.216-3.861-4.782-4.936-7.525l20.928-20.928c3.298-3.298 8.651-3.298 11.949 0l33.199 33.199c3.298 3.299 3.298 8.652 0 11.95z" fill="url(#SVGID_8_)"/></g><g><path d="m468.009 117.11-73.735-73.734 10.608-10.606 73.734 73.733z" fill="url(#SVGID_9_)"/><path d="m489.11 82.846-60.572-60.571 10.608-10.607 60.572 60.572z" fill="url(#SVGID_10_)"/><path d="m447.613 152.08-88.308-88.309 10.607-10.606 88.309 88.309z" fill="url(#SVGID_11_)"/></g><path d="m412.014 132.473-34.487-34.487c-7.62-7.62-6.336-20.312 2.655-26.252l66.96-44.236c10.117-6.683 23.539-5.326 32.112 3.248 8.574 8.574 9.931 21.996 3.248 32.112l-44.236 66.96c-5.94 8.992-18.632 10.275-26.252 2.655z" fill="url(#SVGID_12_)"/><path d="m438.266 129.818 44.236-66.96c6.683-10.116 5.326-23.539-3.248-32.112-3.189-3.189-7.049-5.375-11.16-6.525 1.942 6.942.92 14.598-3.278 20.952l-44.236 66.96c-5.94 8.991-18.632 10.275-26.252 2.655l-16.802-16.802s.001.001.001.001l34.487 34.487c7.62 7.619 20.312 6.336 26.252-2.656z" fill="url(#SVGID_13_)"/><g><path d="m444.321 3.723c-4.964-4.964-13.011-4.964-17.975 0l-5.752 5.752c-4.964 4.964-4.964 13.011 0 17.975 4.964 4.964 13.011 4.964 17.975 0l5.752-5.752c4.963-4.964 4.963-13.012 0-17.975z" fill="url(#SVGID_14_)"/><path d="m410.057 24.824c-4.964-4.964-13.011-4.964-17.975 0l-5.752 5.752c-4.964 4.964-4.964 13.012 0 17.975 4.964 4.964 13.011 4.964 17.975 0l5.752-5.752c4.964-4.964 4.964-13.011 0-17.975z" fill="url(#SVGID_15_)"/><path d="m377.987 48.119c-4.964-4.964-13.011-4.964-17.975 0l-5.752 5.752c-4.964 4.964-4.964 13.011 0 17.975 4.964 4.964 13.011 4.964 17.975 0l5.752-5.752c4.964-4.964 4.964-13.011 0-17.975z" fill="url(#SVGID_16_)"/></g><g><path d="m506.277 65.679c-4.964-4.964-13.011-4.964-17.975 0l-5.752 5.752c-4.964 4.964-4.964 13.011 0 17.975s13.011 4.964 17.975 0l5.752-5.752c4.964-4.963 4.964-13.011 0-17.975z" fill="url(#SVGID_17_)"/><path d="m485.176 99.943c-4.964-4.964-13.011-4.964-17.975 0l-5.752 5.752c-4.964 4.964-4.964 13.012 0 17.975 4.964 4.964 13.011 4.964 17.975 0l5.752-5.752c4.964-4.963 4.964-13.011 0-17.975z" fill="url(#SVGID_18_)"/><path d="m461.881 132.013c-4.964-4.964-13.011-4.964-17.975 0l-5.752 5.752c-4.964 4.964-4.964 13.011 0 17.975s13.011 4.964 17.975 0l5.752-5.752c4.964-4.964 4.964-13.011 0-17.975z" fill="url(#SVGID_19_)"/></g><path d="m211.659 357.7-59.36-59.36c-3.363-3.363-3.363-8.816 0-12.179l6.117-6.117c3.363-3.363 8.816-3.363 12.179 0l59.36 59.36c3.363 3.363 3.363 8.816 0 12.179l-6.117 6.117c-3.363 3.363-8.816 3.363-12.179 0z" fill="url(#SVGID_20_)"/><path d="m183.14 386.22-59.36-59.36c-3.363-3.363-3.363-8.816 0-12.179l6.117-6.117c3.363-3.363 8.816-3.363 12.179 0l59.36 59.36c3.363 3.363 3.363 8.816 0 12.179l-6.117 6.117c-3.364 3.363-8.816 3.363-12.179 0z" fill="url(#SVGID_21_)"/><circle cx="150.651" cy="466.007" fill="url(#SVGID_22_)" r="17.5"/><circle cx="200.855" cy="457.522" fill="url(#SVGID_23_)" r="17.5"/><path d="m78.818 434.139-2.956-2.956c-17.205-17.205-17.205-45.1 0-62.305 3.203-3.203 8.397-3.203 11.6 0l53.661 53.661c3.203 3.203 3.203 8.397 0 11.6-17.206 17.205-45.1 17.205-62.305 0z" fill="url(#SVGID_24_)"/><path d="m141.122 422.538-17.685-17.685c3.203 3.203 3.203 8.397 0 11.6-14.667 14.667-37.098 16.82-54.057 6.481 1.789 2.935 3.943 5.71 6.481 8.248l2.956 2.956c17.205 17.205 45.1 17.205 62.305 0 3.204-3.203 3.204-8.396 0-11.6z" fill="url(#SVGID_25_)"/></g><path d="m450.02 341.623c-4.142 0-7.5-3.358-7.5-7.5v-30.5c0-4.142 3.358-7.5 7.5-7.5s7.5 3.358 7.5 7.5v30.5c0 4.142-3.358 7.5-7.5 7.5z" fill="url(#SVGID_26_)"/><path d="m450.02 382.145c-13.309 0-23.548-11.762-21.713-24.944l3.933-28.264c1.02-7.333 7.291-12.792 14.695-12.792h6.171c7.404 0 13.674 5.458 14.695 12.792l3.933 28.264c1.834 13.181-8.405 24.944-21.714 24.944z" fill="url(#SVGID_27_)"/><path d="m471.733 357.2-3.933-28.264c-1.02-7.333-7.291-12.792-14.695-12.792h-6.171c-1.771 0-3.474.32-5.059.896 5.041 1.831 8.86 6.317 9.636 11.896l3.933 28.264c1.436 10.319-4.527 19.767-13.569 23.384 2.509 1.004 5.254 1.56 8.144 1.56 13.31.001 23.549-11.762 21.714-24.944z" fill="url(#SVGID_28_)"/></g></svg>