<svg id="Capa_1" enable-background="new 0 0 512.232 512.232" height="512" viewBox="0 0 512.232 512.232" width="512" xmlns="http://www.w3.org/2000/svg"><g><path d="m283.395 139.382h.002c8.273 0 15.003-6.729 15.004-15.001 0-8.27-6.729-14.999-15-14.999s-15.002 6.73-15.002 15.001c0 8.27 6.728 14.999 14.996 14.999z" fill="#fff"/><path d="m154.953 140.07c-8.27.001-14.998 6.73-14.998 15.001s6.729 15.001 15 15.001 15-6.729 15-15c0-4.008-1.56-7.774-4.393-10.607-2.834-2.834-6.601-4.395-10.609-4.395z" fill="#fff"/><path d="m124.266 268.516c-8.271 0-15 6.728-15 14.999 0 8.27 6.73 15 15.001 15v15l.002-15c8.27 0 14.999-6.729 14.999-15-.001-8.269-6.73-14.999-15.002-14.999z" fill="#fff"/><path d="m238.73 253.876c-1.358-2.717-2.432-8.543 2.166-13.14 2.215-2.214 4.889-3.337 7.947-3.337 1.837 0 3.682.416 5.191 1.171 16.655 8.328 34.482 12.55 52.985 12.549 21.707-.001 43.012-5.951 61.611-17.208 19.133-11.581 34.554-28.318 44.598-48.405 29.258-58.521 5.454-129.934-53.065-159.193-34.425-17.214-72.887-26.313-111.226-26.313-32.456 0-64.14 6.237-94.171 18.537-30.658 12.557-58.138 30.858-81.674 54.395-75.825 75.825-94.561 191.19-46.62 287.07 5.738 11.48 13.213 21.866 22.218 30.871 22.081 22.082 52.695 34.746 83.992 34.746 18.503 0 36.329-4.222 52.982-12.549 58.52-29.26 82.325-100.674 53.066-159.194zm44.67-174.494c24.814 0 45.001 20.188 45.001 45.001-.003 24.813-20.189 44.999-45 44.999h-.005c-24.811.001-44.996-20.186-44.997-44.998 0-24.813 20.188-45 45.001-45.002zm-159.131 249.133c-24.813 0-45.002-20.188-45.003-45 .001-24.813 20.188-44.999 44.998-44.999 24.813 0 45.001 20.186 45.004 44.998-.001 24.815-20.187 45.001-44.999 45.001zm30.686-128.443c-24.812 0-44.999-20.188-45-45 0-24.813 20.187-45 44.998-45.002 12.023 0 23.323 4.682 31.822 13.181 8.5 8.5 13.181 19.801 13.18 31.822 0 24.811-20.187 44.998-45 44.999z" fill="#fff"/><path d="m314.232 357.938c-18.408 0-35.715 7.169-48.732 20.185-22.961 22.96-22.362 47.644-21.882 67.478.37 15.259.662 27.311-7.824 38.701-2.725 3.657-3.638 8.354-2.481 12.766 1.156 4.411 4.257 8.057 8.425 9.907 7.86 3.488 17.423 5.257 28.422 5.257 32.54 0 71.569-15.412 92.803-36.646 26.871-26.871 26.871-70.592 0-97.463-13.016-13.016-30.323-20.185-48.731-20.185z" fill="#fff"/><path d="m498.894 241.193c-8.499-8.5-19.8-13.18-31.819-13.18-12.02 0-23.32 4.681-31.858 13.218l-90.748 91.397c14.816 4.736 28.394 12.966 39.708 24.282 11.175 11.175 19.34 24.567 24.096 39.191l90.622-91.269c8.5-8.499 13.181-19.8 13.181-31.82s-4.683-23.32-13.182-31.819z" fill="#fff"/></g></svg>