<svg id="Capa_1" enable-background="new 0 0 512 512" height="512" viewBox="0 0 512 512" width="512" xmlns="http://www.w3.org/2000/svg"><g><g><path d="m296 320h-240c-8.284 0-15-6.716-15-15 0-63.411 51.589-115 115-115h40c63.411 0 115 51.589 115 115 0 8.284-6.716 15-15 15z" fill="#ff6378"/></g><path d="m196 190h-20v130h120c8.284 0 15-6.716 15-15 0-63.411-51.589-115-115-115z" fill="#e20059"/><g><path d="m176 220c-46.869 0-85-38.131-85-85v-20c0-8.284 6.716-15 15-15h140c8.284 0 15 6.716 15 15v20c0 46.869-38.131 85-85 85z" fill="#ffc89a"/><path d="m246 100h-70v120c46.869 0 85-38.131 85-85v-20c0-8.284-6.716-15-15-15z" fill="#fab68c"/><path d="m176 20c-52.383 0-95 42.617-95 95h190c0-52.383-42.617-95-95-95z" fill="#ffe278"/><g fill="#ffc178"><path d="m176 20v95h95c0-52.383-42.617-95-95-95z"/><path d="m276 130h-200c-8.284 0-15-6.716-15-15s6.716-15 15-15h200c8.284 0 15 6.716 15 15s-6.716 15-15 15z"/><path d="m176 70c-8.284 0-15-6.716-15-15v-40c0-8.284 6.716-15 15-15s15 6.716 15 15v40c0 8.284-6.716 15-15 15z"/></g><path d="m276 100h-100v30h100c8.284 0 15-6.716 15-15s-6.716-15-15-15z" fill="#ff9d21"/><path d="m191 55v-40c0-8.284-6.716-15-15-15v70c8.284 0 15-6.716 15-15z" fill="#ff9d21"/></g><path d="m0 305v192c0 8.284 6.716 15 15 15h482c8.284 0 15-6.716 15-15v-192z" fill="#f2ba23"/><path d="m176 512h321c8.284 0 15-6.716 15-15v-192h-336z" fill="#d89d1e"/><path d="m123.057 337.606-20.645-34.408 7.818-23.455c2.62-7.859-1.628-16.354-9.487-18.974l-52.605 31.456c-7.056 4.342-9.255 13.58-4.914 20.636l32.811 53.318c4.044 6.571 10.711 11.167 18.292 12.608 1.698.323 3.412.481 5.118.481 5.912 0 11.736-1.906 16.527-5.499 11.317-8.485 14.362-24.032 7.085-36.163z" fill="#ff6378"/><g><g><path d="m451 444h-230c-8.284 0-15-6.716-15-15s6.716-15 15-15h230c8.284 0 15 6.716 15 15s-6.716 15-15 15z" fill="#f1f4f6"/></g></g><path d="m451 414h-115v30h115c8.284 0 15-6.716 15-15s-6.716-15-15-15z" fill="#e2e2ea"/><path d="m457.249 260.077c-2.848-3.227-6.944-5.077-11.249-5.077h-220c-4.305 0-8.401 1.85-11.249 5.077-2.848 3.229-4.171 7.524-3.634 11.795l21.651 172.128h206.463l21.651-172.128c.538-4.27-.785-8.566-3.633-11.795z" fill="#e2e2ea"/><path d="m457.249 260.077c-2.848-3.227-6.944-5.077-11.249-5.077h-110v189h103.232l21.651-172.128c.537-4.27-.786-8.566-3.634-11.795z" fill="#c6d0da"/><g><path d="m336 397.5c-20.677 0-37.5-16.822-37.5-37.5s16.823-37.5 37.5-37.5 37.5 16.822 37.5 37.5-16.823 37.5-37.5 37.5z" fill="#f1f4f6"/></g><path d="m336 322.5v75c20.677 0 37.5-16.822 37.5-37.5s-16.823-37.5-37.5-37.5z" fill="#e2e2ea"/></g></svg>